<svg xmlns="http://www.w3.org/2000/svg" xmlns:xlink="http://www.w3.org/1999/xlink" viewBox="0 0 2500 2500"><defs><style>.a{isolation:isolate;}.b{fill:url(#a);}.c{opacity:0.19;}.d{fill:#2495c3;opacity:0.75;mix-blend-mode:screen;}</style><radialGradient id="a" cx="1250" cy="1250" r="1113.53" gradientTransform="matrix(0.94, 0.34, -0.32, 0.89, 481.53, -293.41)" gradientUnits="userSpaceOnUse"><stop offset="0" stop-color="#b9d9ff"/><stop offset="0.26" stop-color="#cee5ff" stop-opacity="0.69"/><stop offset="0.52" stop-color="#e3f0ff" stop-opacity="0.4"/><stop offset="0.75" stop-color="#f2f8ff" stop-opacity="0.18"/><stop offset="0.91" stop-color="#fbfdff" stop-opacity="0.05"/><stop offset="1" stop-color="#fff" stop-opacity="0"/></radialGradient></defs><title>app_stargrad</title><g class="a"><circle class="b" cx="1250" cy="1250" r="1113.53"/><g class="c"><polyline class="d" points="1280.27 1190.86 1574.26 -491.41 1849.77 -418.39 1280.27 1190.86"/><polyline class="d" points="1293.35 1207.39 2217.23 -228.91 2442.79 -54.68 1293.35 1207.39"/><polyline class="d" points="1306.46 1229.28 2740.79 302.35 2874.33 554.14 1306.46 1229.28"/><polyline class="d" points="1310.07 1250.91 2979.36 890.42 3015.35 1173.16 1310.07 1250.91"/><polyline class="d" points="1305.8 1272.42 2994.81 1524.87 2928.6 1802.08 1305.8 1272.42"/><polyline class="d" points="1294.21 1291.04 2785.15 2123.86 2625.28 2359.82 1294.21 1291.04"/><polyline class="d" points="1276.79 1304.36 2377.41 2610.17 2144.49 2774.44 1276.79 1304.36"/><polyline class="d" points="1255.79 1310.67 1824.16 2921.09 1548.23 2992.49 1255.79 1310.67"/><polyline class="d" points="1233.91 1309.15 1196.74 3016.52 913.39 2985.84 1233.91 1309.15"/><polyline class="d" points="1213.98 1300 576.07 2884.17 321.82 2755.37 1213.98 1300"/><polyline class="d" points="1198.56 1284.4 42.17 2541.09 -150.19 2330.78 1198.56 1284.4"/><polyline class="d" points="1189.65 1264.37 -336.11 2031.53 -441.78 1766.82 1189.65 1264.37"/><polyline class="d" points="1188.39 1242.47 -510 1421.19 -515.35 1136.22 1188.39 1242.47"/><polyline class="d" points="1194.95 1221.55 -457.08 788.77 -361.41 520.29 1194.95 1221.55"/><polyline class="d" points="1208.48 1204.29 -184.16 215.82 0.18 -1.55 1208.48 1204.29"/><polyline class="d" points="1227.23 1192.91 273.56 -223.78 522.81 -362.02 1227.23 1192.91"/><polyline class="d" points="1250.24 1188.91 893.11 -481.1 1175.91 -516.52 1250.24 1188.91"/></g></g></svg>