<svg xmlns="http://www.w3.org/2000/svg" xmlns:xlink="http://www.w3.org/1999/xlink" viewBox="0 0 989 445"><defs><style>.a{fill:none;}.b{isolation:isolate;}.c{opacity:0.17;}.d{clip-path:url(#a);}.e{opacity:0.75;mix-blend-mode:screen;}.f{fill:#2495c3;}.g{opacity:0.19;}.h{clip-path:url(#b);}.i{fill:#00529a;}.j{fill:#fff;}.k{fill:#0689be;}.l{fill:#8695c8;}.l,.m,.n,.o{fill-rule:evenodd;}.m{fill:#dedcec;}.n{fill:#a01c39;}.o{fill:#e93c28;}</style><clipPath id="a"><rect class="a" x="483" y="-1606" width="2480" height="683"/></clipPath><clipPath id="b"><rect class="a" x="-886.14" y="-2465.01" width="1242" height="2208"/></clipPath></defs><title>logo</title><g class="b"><g class="c"><g class="d"><g class="e"><polyline class="f" points="1776.86 -1362.26 1167.75 150.4 924.97 27.41 1776.86 -1362.26"/></g></g></g><g class="g"><g class="h"><g class="e"><polyline class="f" points="108.55 -1356.48 1159.49 -109.61 937.08 47.24 108.55 -1356.48"/><polyline class="f" points="88.5 -1350.45 631.21 187.27 367.74 255.45 88.5 -1350.45"/><polyline class="f" points="67.61 -1351.9 32.12 278.4 -238.45 249.1 67.61 -1351.9"/><polyline class="f" points="48.58 -1360.64 -560.54 152.02 -803.31 29.03 48.58 -1360.64"/></g></g></g><path class="i" d="M855,373.69s54.13,26.08,48,41.64-47.25,7.58-63.68,4.94-66-17.48-60-29.33c7.15-15.1,70.31-.24,70.31-.24Z"/><path class="j" d="M145.3,90.53c-3.89,1.93-34.72,12.1-34.72,12.1-.67,3.45-1.75,25.14-1.65,44.08s.16,109.68.16,109.68c-6.16-23.41-24-81.08-24-81.08C76.43,141,68.94,122.39,68.94,122.39L33.39,138c.07.23,12.61,63.43,23.58,129.13,10.22,62,19.92,132.33,20.69,138.73,9-6.82,27.42-15.24,31.13-17.72-1.73-5-1.93-18.26-4.76-32.81C98.1,325,94.1,306.37,87.56,281.12c5.58,12.5,10.34,25.27,14.15,36C111.16,343.55,117.1,361,117.1,361L134,352.63c0-.63.68-48.44.68-48.44.54-24.71.71-50.87.71-50.87C138.6,281.78,151.13,367,151,372c9-4.56,23.89-11.29,28.92-12.5-.87-3.39-15.15-84.83-21.41-145.17C153.61,167.56,145.48,95,145.3,90.53Z"/><path class="j" d="M308.31,287.57c-5.38,4.08-10.13,8.07-17.66,7.71-10.46-.41-12.84-71.72-14.64-104.34s-4.27-127.84-4.27-127.84-9.67,2.52-15.81,3.43l-14.47,2.1c0,1.15,9.53,95,12.25,139.84s5.71,97.79,4.13,124.81c13.34-6.25,44-15.66,51.53-16.31A142.18,142.18,0,0,1,308.31,287.57Z"/><path class="j" d="M370.66,274.09c-.94.42-14.57,5.5-20.91,6-4.23,0-6.15-4.63-7.19-13.48s-4.2-50.67-.82-54.83c4.09-5.06,19.8-3.5,20.83-3.39-2.18-17.51-3.15-39-3.42-49.28-.95.37-13.55,4.29-19.12,4.15-4-1.19-5.46-6.36-7-34.46-.67-29.37,1.39-27.34,5.59-28.72s20.64-.47,21.54-.44c-.06-1-.73-12.55-.73-23.77,0-10.64.69-21,.69-21s-16.6,2.7-27.38,3.68-28,1.34-28,1.34,5.9,85.83,9.33,141.19,4.66,112.78,4.52,113.32c.86-.28,47.13-12.6,54-12A161.66,161.66,0,0,1,370.66,274.09Z"/><path class="j" d="M409,228.4c.12,2,1.1,25.95,1.1,25.95-.13,8.31,1.15,14.91-3.4,15.19s-7.88-44.78-8.72-73.92.53-77.34.53-77.34c1.57-17,1.48-24.54,4.86-23.65s3,12.73,3,12.73c.8,6.68,1.95,48.88,1.95,48.88,1-.35,26.45-2.71,26.45-2.71-.09-2.17-4.64-73.43-10.26-85-4.63-9.19-12.22-14.62-21-14.62s-16.9,5.16-22.63,22.28c-6.82,20.47-10,63.74-8.85,109s3.16,69.14,6.57,86.87,14.76,26.37,29.23,24.76,23.52-10.94,26.2-22.92,1-50.91,1-50.91C434.15,223.37,409,228.4,409,228.4Z"/><path class="j" d="M568.46,269.24a56.62,56.62,0,0,1,.94-11.52l-2.83.6c-5.28,1-10.51,3.24-15.21,1.64-6.11-2.09-5.8-8.23-6.59-16.08s-2.48-49.72-2.77-76.18.34-94.67.34-94.67c.07-1.55.2-4.57.2-4.57a112.13,112.13,0,0,1-14.37-.8,151.12,151.12,0,0,1-15.08-2.81c.13,1.52.37,4.29.37,4.29,1,11.89,4.62,76,5.81,103.5s2,76.46,2,76.46c-.07,18.26-1.6,34.7-1.6,34.7.43,0,12.79-.84,25.06-.9s24.43.63,24.43.63C569.06,282.93,568.44,277.06,568.46,269.24Z"/><path class="j" d="M639.14,259.46c-3-34.56-6.76-91.59-10-131.79-2-24.75-3.34-42.26-3.34-42.26A165.26,165.26,0,0,1,609.4,82c-9.3-2.51-19.14-6.07-19.14-6.07,0,1.2-.78,18.3-2.1,46.94s-2.41,52.45-3.52,73.18-3.28,45.69-5,60a248.65,248.65,0,0,1-5.09,27.51c1,0,25.57,1.82,25.57,1.82,0-.64-.07-17.17,1.06-20.68,1.3-4,2.93-5.88,7.47-5.34,4.69.55,5.8,2.69,7.17,7.4S617,287.43,617,287.43c.78.06,26.56,3.59,26.56,3.59A282.71,282.71,0,0,1,639.14,259.46ZM609.38,147.41c2.05,23.58,4.94,70.33,4.94,70.33-.11,6.89-1.36,8.09-4.94,7.49s-4.33-2.74-4.5-7.93S607.91,171.6,609.38,147.41Z"/><path class="j" d="M707.53,279.64c-4.17-13.31-6.11-31.77-6.11-31.77a12.7,12.7,0,0,1,1.07-6.3c4.73-7.56,11.77-35.47,11.57-61.4-2-80-42.63-83.21-58.4-85l-2.16-.36c.12,1.16,2.94,45.49,2.94,45.49.7,21.35.59,58.87.59,58.87-.26,25.92-3.6,93.21-3.6,93.21.92.1,19.51,2,25.85,4.59-.73-14,.38-38.81.38-38.81,1.18,7.15,4.85,25.41,4.85,25.41a113.38,113.38,0,0,0,4.55,15.12c.71.13,28.09,6.36,28.09,6.36C716.55,304.31,711.69,292.94,707.53,279.64ZM680.86,144.26c1-2.34,8.75,8.69,9.17,31.3.46,34.58-8,39.85-9.2,38.89s-2-14.61-1.8-31S679.83,146.6,680.86,144.26Z"/><path class="j" d="M751.31,245.75c.69-34.25,2.09-65.4,2.09-65.4C742.65,177.73,730,172,730,172c.28,4.16.44,30.85.2,63.4s-2.62,70.89-2.62,70.89c.39.11,7.57,1.93,12.9,3.5s12.48,4.15,12.48,4.15S750.59,280,751.31,245.75Z"/><path class="j" d="M828.42,259.92c2.69-30.59,5.34-72.1,5.34-72.1-2.66-1.8-10.7-7.18-27.64-19,.1.81,1.2,32.64-1.35,69.5s-5.4,53.72-7,60.7-9.15,9.44-10.11-3.2.11-41.31,1.11-63.75,5.43-65.59,5.43-65.59a98.42,98.42,0,0,1-10.91-3.83c-6.05-2.57-15.91-7.18-15.91-7.18.12,1.12-.26,52.69-1.19,75.24s-2.27,63.7-2.27,63.7c-.89,21.5,5.4,28.82,25.24,34.23,23.91,6.58,29.87-7.12,32.63-17.93C823.15,305.44,825.59,288.49,828.42,259.92Z"/><path class="j" d="M506.51,171.89c-1.46-44-2.07-105.64-2.07-105.64.07-1.47.15-3.89.15-3.89l-2.69.08c-.11,0-24.77-2-24.77-2,.07,1.31,3.76,81,4.17,98.83S483,247.75,483,247.75c-.46,7.8-1.73,8.55-4.93,8.82s-4.19-2.79-5.17-6.51-4.89-71.63-5.77-90.3-1.86-102.37-1.86-102.37c-1,.15-27.48-.22-27.48-.22.1,1.48.29,4.11.29,4.11,1.76,28,3.71,85.47,4.83,112.18s4.18,71,6.8,89.22,11.53,27.19,28.41,25.83,29.65-13.43,29.42-38S507.74,213,506.51,171.89Z"/><path class="j" d="M897.9,383.05s-4.67-4.29-10.17-8.65A98.63,98.63,0,0,0,877.46,367s9.81-53.16,11.39-63.54c0,0-15.53,34.92-15.78,35.45a62,62,0,0,0-12.86-6.53s-.6-23.28-3.09-44.2l-7.44,66.33S829.79,342.75,829,342.48c0,0,6.69-43,9.47-61.82,2.62-18.85,4.73-33.36,6.15-48.22s3-32.39,2.82-37.32l22.49,19.55s.77,33.22,1.08,43.48,1.07,25.65,1.76,36.39a242.39,242.39,0,0,0,9.44-27.91c4.68-16.81,7.45-32.79,8.09-33.9,0,0,11,9.52,17.72,18s6.14,11.61,6.14,11.61S897.86,382.24,897.9,383.05Z"/><path class="j" d="M242,206.8c-6.51-74.35-10.94-104-16-117.62-5.38-14.43-19.88-18-28.94-16C182,76.37,175.4,85,173.68,96.95c-4.54,31.25-5.74,79.22-1.46,126.47,6.29,69.63,9.5,87.21,14.43,102.8,3.51,11.1,14.67,22.78,33.43,19.54C239,342.5,244,325.88,245.5,311S247.74,273.06,242,206.8Zm-21.66,94.8c-.84,7.76-1.78,11.68-5.85,12.39s-5.19-3.09-6.91-9.06c-4.68-16.48-7.71-53.58-10.81-96.77-4.22-58.86-3.47-105.36,2.4-107.28,1.08-.36,3.27-1,4.56,2.59,5,14.07,9.79,56.49,13.14,103.24C219.84,247.83,222.28,283.6,220.33,301.6Z"/><path class="k" d="M604.88,217.3c.17,5.19.92,7.33,4.5,7.93s4.83-.61,4.94-7.49c0,0-2.89-46.76-4.94-70.33C607.91,171.6,604.74,212.12,604.88,217.3Z"/><path class="k" d="M680.86,144.26c-1,2.34-1.69,22.72-1.83,39.16s.57,30.09,1.8,31,9.66-4.31,9.2-38.89C689.61,152.95,681.9,141.92,680.86,144.26Z"/><path class="k" d="M203.73,103.48c-1.3-3.64-3.48-2.95-4.56-2.59-5.88,1.92-6.63,48.42-2.4,107.28,3.1,43.19,6.13,80.29,10.81,96.77,1.71,6,2.84,9.78,6.91,9.06s5-4.63,5.85-12.39c1.94-18-.49-53.77-3.47-94.88C213.52,160,208.71,117.55,203.73,103.48Z"/><path class="k" d="M931.9,253.35c-15.89-28.11-67-79-151.71-124.47a41.12,41.12,0,0,1-15.49,3l0,.1a24,24,0,0,1-43.07,17.48l-.1-.16a24,24,0,0,1,8.84-35.58l.11-.05a41.08,41.08,0,0,1-5.33-11.25c-65-27.88-144.7-50.87-238.62-60.75C237.84,15.54,30.34,114.32,3.66,127.26c23.26,100,43.55,243.52,53.77,313.24,268.1-161.09,495.11-147.08,627.9-123.82,28,4.91,69,16.74,108,31.11-3.93,13.38-11.91,26.7-20.56,42.28-7,16.23,48.58,30.82,65.16,34.12,18.33,3.64,65.82,8.85,71-3.86,4-12.75,7.4-26.23,10.35-39.88a18.13,18.13,0,0,1-8.93-9.48l.06.07-.1-.13a18.36,18.36,0,0,1,13-24.89h0a1.69,1.69,0,0,0,.1.2,31.56,31.56,0,0,1,3.29-28.66h0A19,19,0,0,1,925,314.4a18.43,18.43,0,0,1,3.57-19.29,18.16,18.16,0,0,1,3-2.57A318.48,318.48,0,0,0,931.9,253.35ZM151,372c.14-5-12.39-90.27-15.63-118.72,0,0-.17,26.15-.71,50.87,0,0-.64,47.81-.68,48.44L117.1,361s-5.94-17.43-15.39-43.88c-3.81-10.7-8.57-23.47-14.15-36C94.1,306.37,98.1,325,104,355.32c2.83,14.56,3,27.8,4.76,32.81-3.7,2.48-22.11,10.9-31.13,17.72-.77-6.4-10.46-76.73-20.69-138.73C46,201.42,33.46,138.22,33.39,138l35.55-15.59S76.43,141,85.06,175.31c0,0,17.87,57.67,24,81.08,0,0,0-90.75-.16-109.68s1-40.63,1.65-44.08c0,0,30.84-10.17,34.72-12.1.18,4.45,8.31,77,13.2,123.84,6.26,60.35,20.53,141.79,21.41,145.17C174.87,360.76,160,367.48,151,372Zm94.51-61C244,325.88,239,342.5,220.07,345.76c-18.76,3.23-29.92-8.45-33.43-19.54-4.93-15.59-8.15-33.17-14.43-102.8-4.28-47.25-3.08-95.22,1.46-126.47C175.4,85,182,76.37,197,73.15c9.07-1.95,23.56,1.61,28.94,16,5.07,13.62,9.5,43.27,16,117.62C247.74,273.06,247,296.1,245.5,311Zm12.35,22.27c1.58-27-1.41-80-4.13-124.81S241.47,69.77,241.46,68.62l14.47-2.1c6.14-.91,15.81-3.43,15.81-3.43s2.48,95.22,4.27,127.84,4.18,103.93,14.64,104.34c7.54.37,12.28-3.63,17.66-7.71a142.18,142.18,0,0,0,1.07,29.4C301.8,317.61,271.18,327,257.85,333.27Zm60.75-18.88c.14-.54-1.1-58-4.52-113.32s-9.33-141.19-9.33-141.19,17.2-.36,28-1.34,27.38-3.68,27.38-3.68-.68,10.36-.69,21c0,11.22.66,22.8.73,23.77-.9,0-17.36-.94-21.54.44s-6.26-.64-5.59,28.72c1.56,28.11,3.05,33.27,7,34.46,5.57.14,18.18-3.78,19.12-4.15.26,10.25,1.24,31.77,3.42,49.28-1-.11-16.74-1.67-20.83,3.39-3.38,4.16-.2,46,.82,54.83s3,13.49,7.19,13.48c6.34-.52,20-5.59,20.91-6a161.66,161.66,0,0,0,1.89,28.36C365.72,301.79,319.45,314.12,318.59,314.4Zm87.78-207s.41-11.86-3-12.73-3.29,6.62-4.86,23.65c0,0-1.38,48.18-.53,77.34s4.16,74.2,8.72,73.92,3.28-6.88,3.4-15.19c0,0-1-23.91-1.1-25.95,0,0,25.14-5,26.09-5.41,0,0,1.68,38.91-1,50.91s-11.73,21.32-26.2,22.92-25.85-7-29.23-24.76-5.41-41.67-6.57-86.87,2-88.49,8.85-109C386.65,59.1,394.79,54,403.55,53.95s16.32,5.43,21,14.62c5.62,11.53,10.17,82.79,10.26,85,0,0-25.48,2.36-26.45,2.71C408.32,156.24,407.17,114,406.37,107.36Zm98.07-41.11s.61,61.61,2.07,105.64c1.22,41.08.8,54.05,1,78.63s-12.54,36.63-29.42,38-25.78-7.6-28.41-25.83-5.7-62.51-6.8-89.22-3.06-84.16-4.83-112.18c0,0-.19-2.63-.29-4.11,0,0,26.53.37,27.48.22,0,0,1,83.68,1.86,102.37s4.79,86.55,5.77,90.3,2,6.77,5.17,6.51,4.48-1,4.93-8.82c0,0-1.25-70.67-1.69-88.46s-4.1-97.52-4.17-98.83c0,0,24.66,2,24.77,2l2.69-.08S504.5,64.78,504.44,66.25Zm64.68,217.29s-12.17-.7-24.43-.63-24.63.88-25.06.9c0,0,1.53-16.45,1.6-34.7,0,0-.77-48.92-2-76.46S514.42,81,513.46,69.14c0,0-.24-2.77-.37-4.29a151.12,151.12,0,0,0,15.08,2.81,112.13,112.13,0,0,0,14.37.8s-.13,3-.2,4.57c0,0-.62,68.21-.34,94.67s2,68.44,2.77,76.18.49,14,6.59,16.08c4.7,1.6,9.93-.62,15.21-1.64l2.83-.6a56.62,56.62,0,0,0-.94,11.52C568.44,277.06,569.06,282.93,569.12,283.53Zm47.89,3.9s.15-16-1.22-20.66-2.47-6.85-7.17-7.4c-4.54-.55-6.18,1.34-7.47,5.34-1.13,3.51-1.1,20-1.06,20.68,0,0-24.56-1.84-25.57-1.82a248.65,248.65,0,0,0,5.09-27.51c1.74-14.34,3.93-39.33,5-60s2.23-44.56,3.52-73.18,2.07-45.75,2.1-46.94c0,0,9.84,3.55,19.14,6.07a165.26,165.26,0,0,0,16.44,3.45s1.38,17.51,3.34,42.26c3.2,40.21,7,97.24,10,131.79A282.71,282.71,0,0,0,643.58,291S617.8,287.5,617,287.43Zm97-107.27c.2,25.93-6.84,53.85-11.57,61.4a12.7,12.7,0,0,0-1.07,6.3s1.94,18.46,6.11,31.77,9,24.67,9.63,25.4c0,0-27.39-6.23-28.09-6.36a113.38,113.38,0,0,1-4.55-15.12s-3.67-18.26-4.85-25.41c0,0-1.11,24.81-.38,38.81-6.34-2.58-24.93-4.49-25.85-4.59,0,0,3.34-67.29,3.6-93.21,0,0,.1-37.52-.59-58.87,0,0-2.82-44.33-2.94-45.49l2.16.36C671.43,97,712.07,100.18,714.06,180.16Zm37.25,65.59c-.71,34.25,1.59,68.07,1.6,68.14s-7.15-2.57-12.48-4.15-12.51-3.39-12.9-3.5c0,0,2.39-38.34,2.62-70.89s.08-59.24-.2-63.4c0,0,12.7,5.77,23.45,8.39C753.4,180.35,752,211.5,751.31,245.75Zm37.86,82.93C769.34,323.28,763,316,763.93,294.46c0,0,1.33-41.14,2.27-63.7s1.31-74.12,1.19-75.24c0,0,9.85,4.61,15.91,7.18a98.42,98.42,0,0,0,10.91,3.83s-4.41,43.15-5.43,65.59-2.08,51.11-1.11,63.75,8.53,10.21,10.11,3.2,4.48-23.87,7-60.7,1.45-68.69,1.35-69.5c16.94,11.79,25,17.16,27.64,19,0,0-2.65,41.52-5.34,72.1-2.83,28.58-5.27,45.52-6.62,50.84C819,321.57,813.08,335.26,789.17,328.68Zm113.2,86.5c-6.08,15.41-46.8,7.51-63.06,4.89S774,402.76,780,391c7.06-14.95,69.59-.22,69.59-.22l5.29-16.86S908.44,399.78,902.37,415.19Zm11.81-152.9s-16.32,120-16.28,120.77c0,0-4.67-4.29-10.17-8.65A98.63,98.63,0,0,0,877.46,367s9.81-53.16,11.39-63.54c0,0-15.53,34.92-15.78,35.45a62,62,0,0,0-12.86-6.53s-.6-23.28-3.09-44.2l-7.44,66.33S829.79,342.75,829,342.48c0,0,6.69-43,9.47-61.82,2.62-18.85,4.73-33.36,6.15-48.22s3-32.39,2.82-37.32l22.49,19.55s.77,33.22,1.08,43.48,1.07,25.65,1.76,36.39a242.39,242.39,0,0,0,9.44-27.91c4.68-16.81,7.45-32.79,8.09-33.9,0,0,11,9.52,17.72,18S914.18,262.29,914.18,262.29Z"/><path class="l" d="M943.37,364.49a18.82,18.82,0,0,1-4.35,7c-7.14,7.28-18.85,8.24-26.16,2.13a15.75,15.75,0,0,1-2.54-2.67,18.35,18.35,0,0,0,35.19-5.14A8.32,8.32,0,0,1,943.37,364.49Z"/><path class="m" d="M933.82,356.56c-5.16-4.59-9.31-8.66-10.31-10.11a1.38,1.38,0,0,1-.26-.45h0a18.35,18.35,0,0,0-13,24.89,15.79,15.79,0,0,0,2.58,2.72c7.31,6.11,19,5.15,26.16-2.13a18.85,18.85,0,0,0,4.35-7C941.2,362.89,937.68,360,933.82,356.56Z"/><path class="n" d="M982,322.83s-.09-.18-.06-.09c4.85,12.61-3.82,28-19.65,34.71-9.25,3.89-18.93,3.93-26.5.84,3.07,2.66,5.79,4.89,7.58,6.21h0a13.74,13.74,0,0,0,1.87,1.22A31.59,31.59,0,0,0,982,322.83Z"/><path class="m" d="M953.71,315.25a17.27,17.27,0,0,0,5.17-14.89,18.34,18.34,0,0,0-33.89,14,16.12,16.12,0,0,0,2.54,2.72C934.79,323.28,946.5,322.44,953.71,315.25Z"/><path class="l" d="M958.88,300.36a17.35,17.35,0,0,1-5.21,14.82c-7.22,7.2-18.94,8-26.2,1.86a16.72,16.72,0,0,1-2.47-2.66,18.34,18.34,0,1,0,33.89-14Z"/><path class="o" d="M981.84,322.49A31.53,31.53,0,0,0,960,304.35,18.34,18.34,0,0,1,929.5,321a17.73,17.73,0,0,1-2.86-3.42,31.57,31.57,0,0,0-3.29,28.67,1.35,1.35,0,0,0,.16.24c1,1.44,5.15,5.52,10.31,10.11l2,1.77c7.57,3.07,17.23,3,26.47-.86C978.25,350.75,986.93,335.15,981.84,322.49Z"/><path class="m" d="M825,95a22.56,22.56,0,0,0,1.75-20.54,24,24,0,0,0-38.42,28.71,20.79,20.79,0,0,0,4.09,2.64C803.63,111.31,818.19,106.47,825,95Z"/><path class="l" d="M826.76,74.49A22.69,22.69,0,0,1,824.95,95c-6.83,11.45-21.41,16.3-32.61,10.81a21.81,21.81,0,0,1-4-2.58,24,24,0,1,0,38.42-28.71Z"/><path class="m" d="M747,123.91c-9.1-4.84-16.31-9.25-16.65-10.15a24,24,0,0,0-8.81,35.63,21,21,0,0,0,4.12,2.66c11.18,5.48,25.75.65,32.56-10.8A24.28,24.28,0,0,0,761.65,131C758.38,129.68,753,127.08,747,123.91Z"/><path class="l" d="M764.73,132a23.28,23.28,0,0,1-3.12-1,24.31,24.31,0,0,1-3.38,10.21c-6.81,11.45-21.37,16.28-32.56,10.8a21.22,21.22,0,0,1-4.05-2.61s-.31-.39,0,.09A24,24,0,0,0,764.73,132Z"/><path class="n" d="M796.18,110.09a23.14,23.14,0,0,1-3.63-2.45,51.34,51.34,0,0,1-9,8.51c-10.65,7.88-23.07,10.91-33.7,9.23,4.81,2.49,9,4.51,11.78,5.65,0,0,0,0,0,0s1.66.64,2.59.9a41.35,41.35,0,0,0,35.93-20.12A24.16,24.16,0,0,1,796.18,110.09Z"/><path class="o" d="M788.35,103.19A24,24,0,0,1,798.41,67c-.27-.43-.55-.86-.85-1.27a41.25,41.25,0,0,0-66.62,48.66c1.86,1.57,8.28,5.4,16.11,9.57l2.76,1.44c10.65,1.71,23.08-1.32,33.75-9.21a51.29,51.29,0,0,0,9-8.49A24.6,24.6,0,0,1,788.35,103.19Z"/><path class="m" d="M692.66,343.72a17.28,17.28,0,0,0-16.77,17.77,16.37,16.37,0,0,0,2.42,8.3,15.46,15.46,0,0,0,2.72,2.13c6.78,4.12,16,2.65,21.91-3.12-.18-2.31-.37-5.11-.5-8.18-.28-7.42-.14-13.5.29-14A17.11,17.11,0,0,0,692.66,343.72Z"/><path class="l" d="M702.93,368.79a0,0,0,0,0,0,0C697,374.57,687.8,376,681,371.92a15.46,15.46,0,0,1-2.72-2.13l-.1-.16a17.3,17.3,0,0,0,25.6,5C703.52,374.23,703.21,372,702.93,368.79Z"/><path class="n" d="M702.7,372.58a29.73,29.73,0,0,0,53.45-26l-.17-.33c5.43,11.65-1.91,26.75-16.55,33.88-13.84,6.74-29.27,3.94-35.83-6.06C703.38,373.73,702.7,372.58,702.7,372.58Z"/><path class="m" d="M725.81,326a17.26,17.26,0,0,0,.33,17.06,15.14,15.14,0,0,0,2.78,2.18c7.66,4.68,18.44,2.17,24.07-5.58a17.81,17.81,0,0,0,2.52-4.87C745.32,331.6,735.33,328.64,725.81,326Z"/><path class="l" d="M755.49,334.83a17.76,17.76,0,0,1-2.52,4.86c-5.63,7.75-16.41,10.26-24.07,5.58a15.37,15.37,0,0,1-2.75-2.15,17.26,17.26,0,0,0,32-7.43Z"/><path class="o" d="M755,344.4a17.28,17.28,0,0,1-28.82-1.27l0,0,0,0a17.29,17.29,0,0,1-2-12.8,29.68,29.68,0,0,0-21.47,16.26h0c-.44.55-.58,6.63-.29,14,.13,3.07.31,5.87.5,8.18a0,0,0,0,1,0,0,41.64,41.64,0,0,0,.67,5.26c6.56,10,22,12.8,35.83,6.06,14.65-7.13,22-22.24,16.55-33.89C755.66,345.59,755.32,345,755,344.4Z"/><path class="k" d="M756.85,418.31c-7.16,0-10.18-3-10.18-8.92,0-6.25,3.28-10.43,11.39-10.43,7.21,0,10.08,2.82,10.08,9.17C768.14,415.39,764,418.31,756.85,418.31ZM757.91,401c-6.35,0-8.77,3.33-8.77,8.27,0,4.69,2.17,7.06,7.81,7.06s8.72-2.37,8.72-8.06C765.67,403.24,763.6,401,757.91,401Zm2.17,12.85a1.31,1.31,0,0,1-1.36-.76l-1.56-3.23-.71,0v3.78a5.53,5.53,0,0,1-1.56.2c-.86,0-1.36-.3-1.46-.86a28.74,28.74,0,0,1-.1-3.73c0-1.16,0-3.13.05-3.73h-.91a1.36,1.36,0,0,1-.25-.81c0-.76.55-1.06,2-1.06l3.18-.05c3.12,0,4.44,1.06,4.44,2.87a2.93,2.93,0,0,1-1.76,3l1.41,2.52h.71a1.34,1.34,0,0,1,.25.66C762.44,413.58,761.64,413.83,760.08,413.83Zm-2.62-8.37c-.35,0-.71.05-1,.05v2.62h1.21a1.26,1.26,0,0,0,1.36-1.41C759,406.12,758.72,405.46,757.46,405.46Z"/><path class="k" d="M85.33,66.25q.23.68.79,2.08t1,2.67q.47,1.28,1,2.85A29,29,0,0,1,89,76.73a22.08,22.08,0,0,1,.46,2.51,4.29,4.29,0,0,1-.15,2,1.59,1.59,0,0,1-1,1L72.8,87.53q-2.11-.85-5.2-9.91-1.12-3.3-2.67-8T62.71,63l-.9-2.65q-.12-.34-.5-1.29a14.12,14.12,0,0,1-.53-1.49q.51,6,2,16.87t1.93,14.61q0,1.18-2.77,2.13L49.9,95.33q-2.22.75-3-.41L38.2,80.19q-1.27-2.27-2.69-4.71t-3.27-5.53l-2.73-4.57Q33.23,77.65,35.4,84l2.27,6.67q1.52,4.47,2.37,6.72.08.9-.47,1.09l-3.2,1.09-5.88,2q-3.87,1.36-5.88,2-1.84.63-2.07-.06L3.37,47.37a1.15,1.15,0,0,1,0-.64,1,1,0,0,1,.35-.54,4.74,4.74,0,0,1,.56-.42A4.25,4.25,0,0,1,5,45.41l.77-.31q.3-.12.78-.27l.62-.19,4-1.37Q20.89,40,25,38.92t6.19-1.77Q33.7,42,38.88,51.36l7.73,14.2-5-32.49a3.88,3.88,0,0,0,.73-.08Q46,31.76,53.1,29.21t10.73-3.78l5-1.72q1-.21,1.68,1.8Q83.8,62,85.33,66.25Z"/><path class="k" d="M127.62,5.83q-.52,5.51-2.18,19.89t-2.3,22.34l6.45,19a2.26,2.26,0,0,1-.13,1.08,1.3,1.3,0,0,1-.82.6q-3.2,1.09-9.5,3.32t-9.67,3.38a4.87,4.87,0,0,1-2.31-2.77,15.79,15.79,0,0,0-.47-2q-.33-1.07-.92-2.69T105,65.9l-.93-2.73a40,40,0,0,0-9-15.14l-1.91-2.1L91.3,43.79l-1.9-2.11-1.93-2.14L85.6,37.44,83.67,35.3q-1-1.1-1.95-2.09l-9.53-8.9q-.17-.49.41-1.15a3,3,0,0,1,1.29-.9l8.59-2.92,5.35-1.78,5.31-1.77q.5-.09,1.43.74a19.82,19.82,0,0,1,2.15,2.35q1.22,1.53,2.5,3.27T101.91,26l2.48,3.77q1.07,1.63,2.16,3.33L108,35.36,106.65,11l19.22-6.54a1.06,1.06,0,0,1,.86.19A4.44,4.44,0,0,1,127.62,5.83Z"/></g></svg>