<svg xmlns="http://www.w3.org/2000/svg" xmlns:xlink="http://www.w3.org/1999/xlink" viewBox="0 0 1500 1500"><defs><style>.a,.b,.c,.d,.e,.f{fill:none;}.b,.c,.d,.e,.f{stroke:#fff;stroke-miterlimit:10;}.c{stroke-dasharray:25.25;}.d{stroke-dasharray:25.25;}.e{stroke-dasharray:25.25;}.f{stroke-dasharray:25.25;}.g{isolation:isolate;}.h{opacity:0.17;}.i{clip-path:url(#a);}.j{opacity:0.75;mix-blend-mode:screen;}.k{fill:#2495c3;}.l{fill:#58595b;}.m{opacity:0.8;fill:url(#b);}</style><clipPath id="a"><rect class="a" x="-2500" width="2480" height="683"/></clipPath><pattern id="b" width="274.12" height="155.72" patternTransform="translate(372.94 -81.85)" patternUnits="userSpaceOnUse" viewBox="0 0 274.12 155.72"><rect class="a" width="274.12" height="155.72"/><polyline class="b" points="219.88 99.28 227.2 86.6 241.85 86.6"/><line class="c" x1="258.69" y1="86.6" x2="283.95" y2="86.6"/><polyline class="b" points="194.62 168.4 187.3 155.72 194.62 143.03"/><line class="d" x1="203.04" y1="128.45" x2="215.67" y2="106.57"/><line class="c" x1="-15.43" y1="86.6" x2="9.82" y2="86.6"/><polyline class="b" points="18.24 86.6 32.89 86.6 40.22 99.28"/><line class="e" x1="48.64" y1="113.87" x2="61.26" y2="135.74"/><polyline class="b" points="65.47 143.03 72.8 155.72 65.47 168.4"/><line class="f" x1="275.53" y1="69.12" x2="250.27" y2="69.12"/><polyline class="b" points="241.85 69.12 227.2 69.12 219.88 56.43"/><line class="d" x1="211.46" y1="41.85" x2="198.83" y2="19.98"/><polyline class="b" points="194.62 12.69 187.3 0 194.62 -12.69"/><polyline class="b" points="82.82 21.43 90.14 8.74 104.79 8.74"/><line class="c" x1="121.63" y1="8.74" x2="146.88" y2="8.74"/><polyline class="b" points="155.3 8.74 169.96 8.74 177.28 21.43"/><line class="e" x1="185.7" y1="36.01" x2="198.33" y2="57.88"/><polyline class="b" points="202.53 65.17 209.86 77.86 202.53 90.55"/><line class="d" x1="194.12" y1="105.13" x2="181.49" y2="127"/><polyline class="b" points="177.28 134.29 169.96 146.98 155.3 146.98"/><line class="f" x1="138.47" y1="146.98" x2="113.21" y2="146.98"/><polyline class="b" points="104.79 146.98 90.14 146.98 82.82 134.29"/><line class="d" x1="74.4" y1="119.71" x2="61.77" y2="97.84"/><polyline class="b" points="57.56 90.55 50.24 77.86 57.56 65.17"/><line class="d" x1="65.98" y1="50.59" x2="78.61" y2="28.72"/><polyline class="b" points="65.47 -12.69 72.8 0 65.47 12.69"/><line class="d" x1="57.06" y1="27.27" x2="44.43" y2="49.14"/><polyline class="b" points="40.22 56.43 32.89 69.12 18.24 69.12"/><line class="f" x1="1.41" y1="69.12" x2="-23.85" y2="69.12"/></pattern></defs><title>web</title><g class="g"><g class="h"><g class="i"><g class="j"><polyline class="k" points="-1117.83 176.21 251.75 -708.88 379.27 -468.45 -1117.83 176.21"/><polyline class="k" points="-1114.39 196.86 479.56 -147.35 513.92 122.62 -1114.39 196.86"/><polyline class="k" points="-1118.46 217.4 494.31 458.45 431.09 723.16 -1118.46 217.4"/><polyline class="k" points="-1129.53 235.18 294.11 1030.41 141.46 1255.71 -1129.53 235.18"/></g></g></g><rect class="l" width="1500" height="1500"/><rect class="m" x="-15.06" y="-19" width="1536.03" height="1535.93"/></g></svg>